<svg width="1535" height="674" xmlns="http://www.w3.org/2000/svg" xmlns:xlink="http://www.w3.org/1999/xlink" xml:space="preserve" overflow="hidden"><g transform="translate(-985 -664)"><g><path d="M1294.16 1233.38C1325.72 1207.58 1360.63 1189.09 1392.88 1155.46 1305.03 1133.16 1228.92 1098.87 1160.22 1049.9 1092.07 1001.32 1032.08 944.492 988 873.386 997.654 858.086 1010.31 862.919 1020.94 862.902 1281.5 862.495 1542.07 862.009 1802.64 862.755 1832.87 862.841 1857.46 856.041 1881.8 837.444 1927.43 802.59 1975.53 770.988 2022.59 738.005 2029.57 733.114 2037.79 729.629 2042.35 720.312 2038.42 700.039 2013.64 693.659 2007.84 673.875 2016 662.549 2027.46 666.787 2037.21 666.73 2107.14 666.31 2177.07 665.997 2247 666.567 2303.88 667.03 2355.27 681.34 2390.6 730.493 2402.03 746.39 2420.23 746.777 2436.18 752.23 2477.43 766.329 2510.71 787.812 2516.67 835.763 2517.02 838.575 2517.13 841.49 2516.8 844.289 2516.59 846.042 2515.33 847.669 2513.01 852.616 2488.59 844.414 2462.7 841.477 2436.18 840.642 2367.04 838.462 2314.41 868.768 2271.84 919.945 2239.9 958.347 2213.58 1000.49 2190.66 1044.99 2096.71 1227.44 1944.69 1320.03 1741.83 1331.48 1561.91 1341.63 1381.77 1334.35 1201.73 1336 1192.63 1336.09 1182.56 1338.17 1172.8 1327.23 1209.48 1291.31 1253.65 1266.25 1294.16 1233.38M2290 734.536C2278.1 736.453 2271.07 742.914 2272.1 755.477 2272.8 764.028 2278.56 768.98 2286.83 770.135 2295.99 771.415 2304.33 768.851 2307.31 759.322 2311.08 747.297 2304.92 739.575 2290 734.536Z" fill="#1E3A8A" fill-rule="evenodd" fill-opacity="1"/></g></g></svg>